<?xml version="1.0" encoding="UTF-8"?><svg id="Layer_2" xmlns="http://www.w3.org/2000/svg" viewBox="0 0 529.5 882.67"><g id="Layer_1-2"><path id="Path_1014" d="m280.58,370.2c-5.1.62-12.5,4.37-16.89,1.79-6.04-3.54,3.64-7.94,6.64-8.92,16.46-5.3,31.6-6.81,46.86-16.36,13.55-8.83,24.63-20.97,32.19-35.26,8.5-14.52,17.43-29.44,24.82-44.53,2.05-4.2,7.01-21.4,11.33-20.11,4.33,1.3-2.01,18.18-2.94,22.21-3,15.61-8.06,30.74-15.05,45.01-14.67,27.02-34.31,46.94-72.59,53.05-4.23.67-10.8,3-14.37,3.11"/><path id="Path_1015" d="m385.61,242.51c-4.65-.5-4.44-6.35-8.34-8.36-3.48-1-7.2-.78-10.55.62-9.91,4.34-17.56,15.67-25.92,22.35-1.88,1.5-19.99,14.45-18.9,6.03.35-2.65,8.62-9.27,10.41-11.52,3.78-4.73,7.15-9.47,10.46-14.55,10.38-15.96,28.65-39.06,47.31-18.15,2.28,3.62,5.99,6.11,10.21,6.84,1.68.45,9.63.67,10.55,2.1,3.11,4.86-21.06,14.51-25.24,14.63-2.12-.23.67,0,0,0"/><path id="Path_1016" d="m318.57,259.91c-.62-27.71-18.08-50.07-38.84-66.3-20.06-15.68-39.2-30.67-55.68-50.23-17.57-20.13-29.63-44.46-35-70.64-3.29-14.88-4.86-30.08-4.69-45.31.14-2.69.53-7,.53-7,1-11.3-2.59-12.39-8-2.41-4.14,8.15-7.35,16.73-9.57,25.59-3.48,13.63-1.82,29.24.16,42.96,3.96,27.23,18.48,51.62,36.03,72.21,10.25,11.86,22.53,21.79,36.26,29.34,12.4,7.38,23.68,16.49,33.52,27.03,9.55,9.82,18.47,20.24,26.7,31.19,3.64,4.62,19.09,34.83,18.62,13.56"/><path id="Path_1017" d="m182.24,148.72c-13.2-20.2-26.28-57.27-26.28-57.27-1.89-5.35-4.84-5.3-6.57.1-1.61,5.74-2.2,11.71-1.72,17.65.81,10.81,3.24,21.42,7.21,31.51,7.46,17.34,18.67,32.82,32.84,45.31,28.73,26.76,68.65,37.63,97.04,65.26,1.6,1.56,11.02,14.32,13.28,14.45,6.21.39-2.51-14.49-3.72-16.69-8.43-14.96-20.08-27.86-34.1-37.76-14.33-10.04-30.51-16.7-44.49-27.27-13.07-9.79-24.39-21.72-33.49-35.28h0"/><path id="Path_1018" d="m177.05,191.62c-15.96-13.76-27.73-38.68-27.73-38.68-4.84-10.26-8.02-9.41-7.05,1.9,0,0,2.87,33.7,24.07,53.69,19.52,18.41,48.51,29.18,73.53,37.8,6.65,2.28,12.82,4.65,19.65,6.38,3.42.87,17.41,6.93,19.8,4.88,5.27-4.56-20.22-20.73-25.08-23.04-27.19-13.01-54.09-23.01-77.22-42.94h0"/><path id="Path_1019" d="m181.43,229.12c-12.13-7.66-23.63-16.28-34.4-25.77-7.93-7.08-9.15-5.74-7.44,4.15,1.15,6.04,3.72,11.72,7.5,16.58,17.96,25.01,50.37,38.14,81.87,43.17,16.32,2.14,32.81,2.76,49.24,1.82,3.35-.11,9.91-.4,9.01-3.25-1.2-3.79-15.31-4.65-18.17-5.18-32.95-6.17-59.97-14.02-87.6-31.52h0"/><path id="Path_1020" d="m303.99,271.15c-10.35.59-20.45,3.42-29.59,8.32-8.45,4.59-17.37,8.23-26.62,10.85-12.43,3.52-25.2,5.69-38.1,6.48-6.04.4-27.52-2.69-32.03-.16,9.98,6.67,21.18,11.31,32.95,13.63,14.96,2.24,27.92-1.47,41.96-6.03,12.22-3.74,23.9-9.09,34.72-15.93,5.16-3.42,9.34-7.39,14.26-10.94,1.48-1.08,10.81-7.05,2.49-6.2h0"/><path id="Path_1021" d="m307.35,279.35c-2.09-1.71-13.77,12.79-15.13,14.32-6.84,7.63-12.2,9.68-22.14,15.05-9.37,4.61-19.52,7.39-29.92,8.23-3.44.41-18.49-.29-19.69.19-4.56,1.82-2.13,2.17.19,4.43,6.02,5.88,23.54,7.96,31.61,7.88,11.32-.13,18.07-5.01,26.91-9.12,9.83-4.61,35-35.97,28.18-40.98-.92-.66,1.1.92,0,0"/><path id="Path_1022" d="m165.19,257.03c-3.89-2.55-7.95-4.8-12.17-6.74-3.36,2.31.92,7.18,2.46,9.17,6.8,7.96,15.28,14.33,24.83,18.61,21.71,9.54,46.04,11.32,68.9,5.01,3.42-.83,20.69-5.76,16.56-9.12-2.28-1.82-12.52.14-15.13.1-5.89-.1-11.81-.57-17.66-.85-23.49-.45-46.62-5.96-67.79-16.16h0"/><path id="Path_1023" d="m267.19,333.41c-1.19-1.63-29.43,11.48-33.12,12.62-14.07,3.95-28.69,5.56-43.28,4.78-14.86-.24-29.63-2.28-43.99-6.1-10.22-2.91-26.41-7.01-26.41-7.01-2.74-.69-3.86.76-2.45,3.22,0,0,14.6,25.7,25.92,31.71,7.09,3.75,19.13.31,26.69-.23,7.91-.2,15.8-.8,23.65-1.79,11.91-2.52,23.53-6.24,34.69-11.09,5.23-2.11,43.22-19.27,38.3-26.12h0"/><path id="Path_1024" d="m241.87,360.81c-.48-1.32-34.27,12.34-38.3,13.54-15.8,3.9-31.89,6.58-48.11,8.02-2.82.25-3.55,2.16-1.61,4.22,0,0,10.32,11.02,17.84,11.83,6.94.75,21.02-5.39,26.99-8.36,7.11-3.53,46.33-20.72,43.18-29.26"/><path id="Path_1025" d="m262.96,355.25c-1.04-2.5-18.01,13.23-20.19,14.95-6.02,4.88-12.28,9.45-18.78,13.68-13.97,8.26-28.35,15.81-43.09,22.61-1.85.67-2.81,2.71-2.13,4.56.19.54.52,1.02.94,1.41,0,0,14.2,15.5,24.83,14.22,11.17-1.33,16.08-12.76,21.09-21.88,5.61-9.53,12.47-18.28,20.4-25.99,4.16-4.4,19.45-17.49,16.92-23.53"/><path id="Path_1026" d="m249.31,527.99c-72.39-35.86-164.04-97.3-205.2-200.3C-18.9,170.09,70.45.66,67.91,0c-2.7-.68-117.87,183.87-42.18,373.12,51.08,127.72,162.3,190.58,216.15,214.94l7.44-60.06h0Z"/><path id="Path_1027" d="m461.56,0c-2.55.66,86.79,170.09,23.79,327.69-41.43,103.65-133.97,165.23-206.57,200.99l8.67,59.46c53.77-24.29,165.18-87.17,216.32-215.02C579.47,183.88,464.28-.68,461.6,0"/><path id="Path_1028" d="m339.61,475.9l-13.5-20.13,6.84-4.6c3.48-2.77,8.56-2.2,11.33,1.29.29.37.54.75.76,1.16l.39.58c1.99,2.52,2.13,6.02.37,8.7l7.75,3.67-4.62,3.09-6.38-3.25-2.2,1.48,3.48,5.2-4.22,2.82h0Zm-6.74-19.19l4.97,7.42,2.11-1.42c1.87-.9,2.66-3.13,1.76-5-.13-.28-.3-.54-.49-.77l-.39-.58c-.9-1.84-3.11-2.6-4.96-1.71-.33.16-.64.38-.91.63l-2.11,1.42h0Z"/><path id="Path_1029" d="m358.08,438.74l-7.61,5.7,3.3,4.4,5.63-4.22,2.47,3.3-5.62,4.22,3.3,4.4,7.61-5.7,2.74,3.64-11.66,8.74-14.53-19.39,11.66-8.74,2.72,3.63v.02Z"/><path id="Path_1030" d="m381.15,438.9l-5.76,4.89,2,4.56-3.93,3.34-9.86-23.39,4.23-3.61,21.41,13.59-3.96,3.36-4.14-2.75h0Zm-7.59,1.08l4.13-3.51-8.16-5.5,4.03,9.01h0Z"/><path id="Path_1031" d="m392.98,434.81l-16.93-17.32,6.11-5.97c2.9-3.38,7.99-3.77,11.38-.86.4.34.75.71,1.07,1.11l4.47,4.56c3.46,2.89,3.92,8.04,1.03,11.5-.31.37-.65.7-1.01,1.01l-6.11,5.97h0Zm-10.12-17.65l10.61,10.87,2.05-2.01c1.74-1.7,2.43-3.62-.88-7.02l-3.3-3.37c-1.82-1.87-3.91-2.96-6.44-.49l-2.05,2.01h0Z"/><path id="Path_1032" d="m406.15,408.98l-16.45-4.86,3.54-3.95,10.7,3.38-4.56-10.29,3.51-3.92,6.62,15.85,6.51,5.81-3.38,3.8-6.49-5.82h0Z"/><path id="Path_1033" d="m422.37,371.12l-3.19,4.38,15.88,11.59-3,4.11-15.86-11.59-3.19,4.38-3.69-2.7,9.38-12.85,3.67,2.69h0Z"/><path id="Path_1034" d="m434.08,374.64l-7-4.37c-3.98-2.73-4.99-8.17-2.27-12.15,2.56-3.74,7.56-4.9,11.5-2.67l7,4.37c3.97,2.75,4.96,8.18,2.23,12.16-2.56,3.71-7.53,4.86-11.46,2.66m6.7-10.41l-7.3-4.56c-1.46-1.15-3.58-.89-4.71.57-.13.17-.26.37-.36.56-1.12,1.46-.84,3.54.62,4.66.18.14.39.26.59.37l7.3,4.56c1.43,1.14,3.51.9,4.65-.53.14-.18.27-.38.37-.59,1.12-1.47.83-3.58-.65-4.69-.16-.13-.34-.23-.51-.32"/><path id="Path_1035" d="m441.54,343.22c-3.63-1.84-5.09-6.29-3.25-9.92.15-.3.32-.58.51-.86,1.53-4.03,6.03-6.06,10.07-4.54.31.12.61.25.91.41l-2.17,4.51c-1.49-1.02-3.55-.65-4.57.86-.14.22-.27.45-.37.69-.94,1.96-.6,3.47,1.04,4.26,4.34,2.08,7.07-10.21,14.88-6.46,3.75,1.91,5.25,6.5,3.35,10.25-.15.3-.33.59-.51.87-1.54,4.2-6.2,6.36-10.4,4.82-.34-.13-.67-.27-.99-.44l2.2-4.59c1.59,1.08,3.76.67,4.84-.93.16-.24.29-.5.4-.77.92-1.93.77-3.75-1.02-4.62-4.16-2-7.15,10.16-14.9,6.44"/><path id="Path_1036" d="m454.14,309.22l-3.49,8.84,5.11,2.02,2.59-6.55,3.84,1.51-2.59,6.55,5.12,2.02,3.49-8.84,4.22,1.67-5.37,13.57-22.54-8.9,5.37-13.56,4.25,1.68v-.02Z"/><path id="Path_1037" d="m474.38,310.97l-23.11-7.3,2.49-7.86c1-4.35,5.33-7.06,9.68-6.05.44.11.89.24,1.31.42l.66.21c3.12.72,5.42,3.36,5.72,6.56l8.34-1.96-1.69,5.3-7.02,1.45-.81,2.53,5.97,1.89-1.52,4.82h0Zm-17.25-10.79l8.52,2.7.77-2.42c.91-1.86.13-4.11-1.74-5.01-.28-.13-.57-.23-.88-.3l-.66-.2c-1.85-.88-4.06-.09-4.94,1.76-.15.34-.27.68-.32,1.05l-.76,2.42h0Z"/><path id="Path_1038" d="m456.98,285.45l1.23-5.04,17.32-.34-15.24-8.31,1.23-5.04,21.88,12.55-1.26,5.19c-8.41.37-16.79.67-25.19,1"/><path id="Path_1039" d="m469.2,249.89l-1.68,9.36,5.41.97,1.23-6.93,4.06.73-1.24,6.93,5.41.97,1.68-9.36,4.46.81-2.57,14.36-23.85-4.29,2.56-14.36,4.5.8h.03Z"/><path id="Path_1040" d="m23.01,675.45c0-13.08,9.33-20.98,23.52-20.98,12.27-.63,22.73,8.82,23.36,21.09.05.94.04,1.9-.04,2.84h-13.79c0-7.61-3.75-11.15-9.74-11.15s-9.32,2.84-9.32,8.2c0,14.19,33.74,5.78,33.74,31.33,0,13.59-9.73,21.7-24.24,21.7-12.72.78-23.67-8.9-24.45-21.61-.07-1.04-.06-2.09.02-3.13h14c0,8.31,4.26,11.76,10.44,11.76s10.24-2.74,10.24-8.62c0-13.59-33.77-6.08-33.77-31.44"/><path id="Path_1041" d="m125.11,669.26h-14.9v58.01h-14v-58.01h-14.9v-13.49h43.81v13.49h0Z"/><path id="Path_1042" d="m179.48,687.21v40.06h-14v-71.49h13.89l16.02,39.67,15.92-39.67h13.89v71.49h-13.99v-40.26l-11.16,26.87h-9.53l-11.05-26.67h0Z"/><path id="Path_1043" d="m276.56,713.17h-20.78l-3.95,14.09h-14.2l20.98-71.49h15.31l20.69,71.49h-14.26l-3.78-14.09h0Zm-17.84-12.07h14.9l-7.3-27.99-7.61,27.99Z"/><path id="Path_1044" d="m306.89,727.26v-71.48h22.71c14.3,0,23.94,9.23,23.94,25.86v2.02c0,11.05-4.76,18.45-12.47,21.88l12.07,21.7h-15.31l-9.63-18.45h-7.3v18.45h-14v.02Zm13.99-58.1v26.36h7c5.83.68,11.12-3.5,11.8-9.33.11-.91.1-1.82-.04-2.73v-2.02c0-9.83-5.48-12.27-11.76-12.27h-7Z"/><path id="Path_1045" d="m381.2,701.5l-20.19-45.73h14.6l12.67,30.22,12.76-30.22h14.5l-20.38,45.73v25.76h-13.99l.02-25.76h0Z"/><path id="Path_1046" d="m421.2,689.24l9.23-33.56h14.5l-13.49,33.56h-10.24Z"/><path id="Path_1047" d="m454.09,675.45c0-13.08,9.33-20.98,23.52-20.98,12.27-.63,22.73,8.82,23.36,21.09.05.94.04,1.9-.04,2.84h-13.79c0-7.61-3.75-11.15-9.74-11.15s-9.32,2.84-9.32,8.2c0,14.19,33.74,5.78,33.74,31.33,0,13.59-9.73,21.7-24.24,21.7-12.72.79-23.67-8.88-24.46-21.59-.07-1.05-.06-2.1.02-3.14h13.99c0,8.31,4.26,11.76,10.44,11.76s10.24-2.74,10.24-8.62c0-13.59-33.77-6.08-33.77-31.44"/><path id="Path_1048" d="m47.73,794.31c.42,7.04-4.95,13.08-11.98,13.51-.36.02-.71.03-1.08.02-7.02.17-12.84-5.37-13.01-12.39,0-.38,0-.76.02-1.14v-21.05c-.48-7.01,4.81-13.08,11.82-13.56.39-.03.78-.04,1.17-.03,7.05-.17,12.91,5.4,13.08,12.45,0,.39,0,.76-.02,1.15v2.46h-7.8v-2.8c.42-2.71-1.43-5.25-4.14-5.69-.38-.06-.75-.08-1.13-.05-2.66,0-5.2,1.4-5.2,5.74v21.65c0,4.26,2.46,5.74,5.2,5.74,2.77.16,5.14-1.95,5.3-4.7.02-.34,0-.68-.05-1.02v-3.39h7.8v3.13h.02Z"/><path id="Path_1049" d="m74.79,798.04h-10.94l-2.06,9.2h-7.91l11.33-46.97h8.4l11.13,46.97h-7.93l-2-9.2h0Zm-9.52-6.8h8.2l-4.06-19.51-4.15,19.51h0Z"/><path id="Path_1050" d="m111.19,767.87h-7.99v39.37h-7.81v-39.37h-7.91v-7.6h23.72v7.6Z"/><path id="Path_1051" d="m127.39,807.24h-7.86v-46.97h7.86v19.85h9.86v-19.85h7.79v46.97h-7.8v-20.25h-9.86v20.25h0Z"/><path id="Path_1052" d="m154.75,794.31v-21.05c-.3-7.19,5.28-13.27,12.48-13.57,7.19-.3,13.27,5.28,13.57,12.48.02.37.02.72,0,1.09v21.05c.23,7.19-5.41,13.22-12.6,13.45-7.19.23-13.22-5.41-13.45-12.6v-.85m7.8-21.38v21.65c0,4.26,2.47,5.74,5.2,5.74,2.77.16,5.14-1.94,5.31-4.7.02-.35,0-.68-.05-1.03v-21.65c.42-2.71-1.43-5.25-4.14-5.69-.38-.06-.75-.08-1.13-.05-2.66,0-5.2,1.4-5.2,5.74"/><path id="Path_1053" d="m211,807.24h-20.59v-46.97h7.86v39.45h12.73v7.52h0Z"/><rect id="Rectangle_343" x="219.57" y="760.27" width="7.8" height="46.97"/><path id="Path_1054" d="m263.12,794.31c.3,7.19-5.28,13.27-12.48,13.57-7.19.3-13.27-5.28-13.57-12.48-.02-.37-.02-.72,0-1.09v-21.05c-.3-7.19,5.28-13.27,12.48-13.57,7.19-.3,13.27,5.28,13.57,12.48.02.37.02.72,0,1.09v2.46h-7.79v-2.8c.42-2.71-1.43-5.25-4.14-5.69-.38-.06-.75-.08-1.13-.05-2.66,0-5.2,1.4-5.2,5.74v21.65c0,4.26,2.46,5.74,5.2,5.74,2.77.16,5.14-1.95,5.3-4.7.02-.34,0-.68-.05-1.02v-3.39h7.8v3.13h0Z"/><path id="Path_1055" d="m313.23,794.31c.23,7.19-5.41,13.22-12.6,13.45-7.19.23-13.22-5.41-13.45-12.6v-21.9c-.3-7.19,5.28-13.27,12.48-13.57,7.19-.3,13.27,5.28,13.57,12.48.02.37.02.72,0,1.09v2.46h-7.8v-2.8c.42-2.71-1.43-5.25-4.14-5.69-.38-.06-.75-.08-1.13-.05-2.66,0-5.2,1.4-5.2,5.74v21.65c0,4.26,2.46,5.74,5.2,5.74,2.77.16,5.14-1.95,5.3-4.7.02-.34,0-.68-.05-1.02v-3.39h7.8v3.13h0Z"/><path id="Path_1056" d="m321.87,794.31v-21.05c-.3-7.19,5.28-13.27,12.48-13.57,7.19-.3,13.27,5.28,13.57,12.48.02.37.02.72,0,1.09v21.05c.23,7.19-5.41,13.22-12.6,13.45-7.19.23-13.22-5.41-13.45-12.6v-.85m7.8-21.38v21.65c0,4.26,2.47,5.74,5.2,5.74,2.77.16,5.14-1.94,5.31-4.7.02-.35,0-.68-.05-1.03v-21.65c.42-2.71-1.43-5.25-4.14-5.69-.38-.06-.75-.08-1.13-.05-2.66,0-5.2,1.4-5.2,5.74"/><path id="Path_1057" d="m378.12,807.24h-20.59v-46.97h7.86v39.45h12.73v7.52h0Z"/><path id="Path_1058" d="m407.17,807.24h-20.58v-46.97h7.86v39.45h12.73v7.52h0Z"/><path id="Path_1059" d="m437.49,767.87h-14.06v12.26h10.46v6.84h-10.46v12.73h14.06v7.53h-21.86v-46.97h21.86v7.61Z"/><path id="Path_1060" d="m471.97,784.12v10.19c.19,7.18-5.48,13.15-12.65,13.34-7.18.19-13.15-5.48-13.34-12.65v-21.81c-.26-7.17,5.35-13.2,12.52-13.46,7.17-.26,13.2,5.35,13.46,12.52,0,.2,0,.4,0,.6h-7.8c0-4.14-2.2-5.66-5.2-5.66s-5.2,1.6-5.2,6.33v21.05c0,4.14,2.28,5.74,5.13,5.74,2.77.16,5.14-1.95,5.3-4.7.02-.34,0-.68-.05-1.02v-3.6h-5.2v-6.84l13-.02.02-.02Z"/><path id="Path_1061" d="m503.04,767.87h-14.06v12.26h10.46v6.84h-10.46v12.73h14.06v7.53h-21.86v-46.97h21.86v7.61Z"/><path id="Path_1062" d="m136.11,869.02v-2.53h-7.12v-4.5h12.74v6.84c0,8.04-4.2,13.68-12.73,13.68-6.47.5-12.13-4.34-12.63-10.82-.03-.4-.04-.79-.03-1.19v-19.26c.37-7.02,6.35-12.4,13.37-12.03,6.38.34,11.52,5.36,12.01,11.73h-5.61c-.12-3.93-3.4-7.04-7.34-6.92-3.8.11-6.84,3.18-6.92,6.98v19.69c-.22,3.6,2.51,6.69,6.1,6.91.35.02.68.02,1.03-.02,4.73,0,7.12-2.82,7.12-8.58"/><path id="Path_1063" d="m170.57,872.56h-13.59l-2.6,9.48h-5.73l12.13-42.3h6.13l11.93,42.3h-5.73l-2.54-9.48h0Zm-12.46-4.44h11.4l-5.6-21.24-5.8,21.24Z"/><path id="Path_1064" d="m205.4,844.66h-9.05v37.4h-5.66v-37.4h-8.93v-4.92h23.65v4.92h0Z"/><path id="Path_1065" d="m235.83,844.66h-15.66v13.74h11.46v4.5h-11.46v14.22h15.66v4.92h-21.19v-42.29h21.19v4.92h0Z"/><path id="Path_1066" d="m269.12,850.9h-5.53c.38-3.46-2.13-6.57-5.59-6.95-.41-.05-.83-.05-1.24,0-3.93,0-6.47,2.04-6.47,5.48,0,9.18,19.18,9.24,19.18,22.08,0,7.02-4.73,11.1-12.52,11.1-6.3.74-11.99-3.77-12.74-10.06-.08-.67-.1-1.33-.06-2h5.51c-.4,3.62,2.22,6.87,5.83,7.27.5.06,1,.05,1.49,0,3.99,0,6.93-1.99,6.93-6.06,0-9.79-19.18-9.96-19.18-22.32,0-5.93,4.19-10.26,11.99-10.26,6.18-.64,11.7,3.85,12.34,10.03.06.58.08,1.16.05,1.74"/><path id="Path_1067" d="m284.6,882.03h-5.6v-42.29h5.6v18.66h13.39v-18.66h5.57v42.29h-5.58v-19.16h-13.39v19.16h0Z"/><path id="Path_1068" d="m335.77,844.66h-15.66v13.74h11.46v4.5h-11.46v14.22h15.66v4.92h-21.19v-42.29h21.19v4.92h0Z"/><path id="Path_1069" d="m365.86,872.56h-13.59l-2.6,9.48h-5.74l12.13-42.3h6.13l11.93,42.3h-5.74l-2.53-9.48h0Zm-12.46-4.44h11.4l-5.6-21.24-5.8,21.24Z"/><path id="Path_1070" d="m407.93,854.62v12.96c0,10.2-4.06,14.45-12.79,14.45h-12.2v-42.29h12.2c8.72.13,12.79,4.68,12.79,14.88m-13.32-9.96h-6.06v32.52h6.06c5.66,0,7.73-2.04,7.73-11.22v-13.51c0-6.42-3.39-7.8-7.73-7.8"/><path id="Path_1071" d="m212.47,493.3c0,.06.06.09.13.06s.07-.09,0-.11-.13,0-.13.06"/><path id="Path_1072" d="m302.71,482.04c-1.36-1.04-3.17-1.27-4.74-.59l-11.68,5.81c-1.53.68-3.33.36-4.53-.81l-10.59-11.28c-1.1-1.29-1.36-3.09-.67-4.65l5.78-11.57c.68-1.57.46-3.38-.59-4.73l-9.47-11.05c-.82-1.03-2.32-1.2-3.35-.38-.14.12-.27.24-.38.38l-9.48,11.05c-1.05,1.35-1.27,3.17-.59,4.73l5.78,11.57c.68,1.55.42,3.36-.67,4.65l-10.59,11.27c-1.21,1.17-3,1.49-4.53.81l-11.64-5.8c-1.57-.68-3.38-.46-4.74.59l-11.05,9.47c-1.03.82-1.2,2.32-.38,3.35.12.14.24.27.38.38l11.05,9.48c1.35,1.04,3.17,1.26,4.73.56l11.15-5.7c1.51-.69,3.31-.37,4.47.83l11.86,13.23c1.05,1.18,1.82,2.33,1.74,2.57-.23,1.09-.4,2.19-.5,3.3l-8,69.88c-.11,1.8.44,3.59,1.54,5.01l9.48,11.05c.82,1.03,2.32,1.2,3.35.38.14-.12.27-.24.38-.38l9.47-11.05c1.1-1.44,1.65-3.21,1.54-5.01l-8-69.88c-.17-1.56-.35-3.08-.37-3.37.44-1,1.08-1.9,1.86-2.66l11.63-13.04c1.16-1.2,2.94-1.53,4.45-.84l11.19,5.71c1.56.69,3.37.48,4.73-.57l11.05-9.48c1.03-.82,1.2-2.32.38-3.35-.12-.14-.24-.27-.38-.38l-11.07-9.49h0Z"/></g></svg>